<svg width="155" height="134" viewBox="0 0 155 134" fill="none" xmlns="http://www.w3.org/2000/svg">
<g filter="url(#filter0_i_509_1605)">
<circle cx="97.038" cy="32.0574" r="30.1824" fill="#FFAB0B"/>
</g>
<g filter="url(#filter1_bdi_509_1605)">
<path fill-rule="evenodd" clip-rule="evenodd" d="M51.1442 85.3891C51.0067 85.3921 50.8688 85.3936 50.7306 85.3936C40.455 85.3936 32.125 77.0636 32.125 66.788C32.125 59.8146 35.9614 53.7372 41.6388 50.5513C41.636 50.3821 41.6346 50.2127 41.6346 50.0429C41.6346 33.031 55.4254 19.2402 72.4373 19.2402C87.1114 19.2402 99.3888 29.5012 102.486 43.2396C113.714 43.711 122.672 52.9629 122.672 64.3071C122.672 75.9527 113.232 85.3934 101.586 85.3934C101.309 85.3934 101.033 85.3881 100.759 85.3775V85.3935H51.1442V85.3891Z" fill="url(#paint0_radial_509_1605)" fill-opacity="0.77"/>
</g>
<g style="mix-blend-mode:soft-light" filter="url(#filter2_di_509_1605)">
<circle cx="50.7306" cy="66.7882" r="18.6056" fill="#848484"/>
</g>
<path d="M73.3197 95.2702C73.7071 94.9043 74.3456 95.1353 74.4057 95.6631L74.895 99.9591C75.1311 102.032 73.097 103.635 71.1322 102.924V102.924C69.1673 102.213 68.6454 99.6856 70.1667 98.2485L73.3197 95.2702Z" fill="#00D0E2"/>
<path d="M85.3105 95.2702C85.6978 94.9043 86.3363 95.1353 86.3964 95.6631L86.8857 99.9591C87.1218 102.032 85.0878 103.635 83.1229 102.924V102.924C81.158 102.213 80.6361 99.6856 82.1575 98.2485L85.3105 95.2702Z" fill="#00D0E2"/>
<path d="M98.1272 95.2702C98.5146 94.9043 99.1531 95.1353 99.2132 95.6631L99.7025 99.9591C99.9386 102.032 97.9045 103.635 95.9396 102.924V102.924C93.9748 102.213 93.4529 99.6856 94.9742 98.2485L98.1272 95.2702Z" fill="#00D0E2"/>
<path d="M77.4543 108.507C77.8409 108.141 78.4791 108.373 78.5397 108.901L79.0331 113.202C79.2712 115.277 77.2406 116.878 75.2767 116.165V116.165C73.3128 115.451 72.7887 112.921 74.3072 111.484L77.4543 108.507Z" fill="#00D0E2"/>
<path d="M89.4446 108.507C89.8312 108.141 90.4694 108.373 90.53 108.901L91.0235 113.202C91.2616 115.277 89.231 116.878 87.2671 116.165V116.165C85.3032 115.451 84.7791 112.921 86.2976 111.484L89.4446 108.507Z" fill="#00D0E2"/>
<defs>
<filter id="filter0_i_509_1605" x="56.8556" y="1.875" width="70.3649" height="73.3647" filterUnits="userSpaceOnUse" color-interpolation-filters="sRGB">
<feFlood flood-opacity="0" result="BackgroundImageFix"/>
<feBlend mode="normal" in="SourceGraphic" in2="BackgroundImageFix" result="shape"/>
<feColorMatrix in="SourceAlpha" type="matrix" values="0 0 0 0 0 0 0 0 0 0 0 0 0 0 0 0 0 0 127 0" result="hardAlpha"/>
<feOffset dx="-10" dy="13"/>
<feGaussianBlur stdDeviation="12"/>
<feComposite in2="hardAlpha" operator="arithmetic" k2="-1" k3="1"/>
<feColorMatrix type="matrix" values="0 0 0 0 1 0 0 0 0 0.886275 0 0 0 0 0 0 0 0 0.9 0"/>
<feBlend mode="normal" in2="shape" result="effect1_innerShadow_509_1605"/>
</filter>
<filter id="filter1_bdi_509_1605" x="0.125" y="3.24023" width="154.547" height="130.153" filterUnits="userSpaceOnUse" color-interpolation-filters="sRGB">
<feFlood flood-opacity="0" result="BackgroundImageFix"/>
<feGaussianBlur in="BackgroundImageFix" stdDeviation="8"/>
<feComposite in2="SourceAlpha" operator="in" result="effect1_backgroundBlur_509_1605"/>
<feColorMatrix in="SourceAlpha" type="matrix" values="0 0 0 0 0 0 0 0 0 0 0 0 0 0 0 0 0 0 127 0" result="hardAlpha"/>
<feOffset dy="16"/>
<feGaussianBlur stdDeviation="16"/>
<feColorMatrix type="matrix" values="0 0 0 0 0 0 0 0 0 0.2015 0 0 0 0 0.3875 0 0 0 0.2 0"/>
<feBlend mode="normal" in2="effect1_backgroundBlur_509_1605" result="effect2_dropShadow_509_1605"/>
<feBlend mode="normal" in="SourceGraphic" in2="effect2_dropShadow_509_1605" result="shape"/>
<feColorMatrix in="SourceAlpha" type="matrix" values="0 0 0 0 0 0 0 0 0 0 0 0 0 0 0 0 0 0 127 0" result="hardAlpha"/>
<feOffset dx="1" dy="2"/>
<feGaussianBlur stdDeviation="7"/>
<feComposite in2="hardAlpha" operator="arithmetic" k2="-1" k3="1"/>
<feColorMatrix type="matrix" values="0 0 0 0 1 0 0 0 0 1 0 0 0 0 1 0 0 0 1 0"/>
<feBlend mode="normal" in2="shape" result="effect3_innerShadow_509_1605"/>
</filter>
<filter id="filter2_di_509_1605" x="24.125" y="32.1826" width="67.2112" height="65.2114" filterUnits="userSpaceOnUse" color-interpolation-filters="sRGB">
<feFlood flood-opacity="0" result="BackgroundImageFix"/>
<feColorMatrix in="SourceAlpha" type="matrix" values="0 0 0 0 0 0 0 0 0 0 0 0 0 0 0 0 0 0 127 0" result="hardAlpha"/>
<feOffset dx="-2" dy="-10"/>
<feGaussianBlur stdDeviation="3"/>
<feColorMatrix type="matrix" values="0 0 0 0 0 0 0 0 0 0 0 0 0 0 0 0 0 0 0.22 0"/>
<feBlend mode="normal" in2="BackgroundImageFix" result="effect1_dropShadow_509_1605"/>
<feBlend mode="normal" in="SourceGraphic" in2="effect1_dropShadow_509_1605" result="shape"/>
<feColorMatrix in="SourceAlpha" type="matrix" values="0 0 0 0 0 0 0 0 0 0 0 0 0 0 0 0 0 0 127 0" result="hardAlpha"/>
<feOffset dx="22" dy="12"/>
<feGaussianBlur stdDeviation="11"/>
<feComposite in2="hardAlpha" operator="arithmetic" k2="-1" k3="1"/>
<feColorMatrix type="matrix" values="0 0 0 0 1 0 0 0 0 1 0 0 0 0 1 0 0 0 0.74 0"/>
<feBlend mode="normal" in2="shape" result="effect2_innerShadow_509_1605"/>
</filter>
<radialGradient id="paint0_radial_509_1605" cx="0" cy="0" r="1" gradientUnits="userSpaceOnUse" gradientTransform="translate(64.0293 33.3451) rotate(90.6693) scale(52.0248 59.3673)">
<stop stop-color="white"/>
<stop offset="1" stop-color="#99CEFF"/>
</radialGradient>
</defs>
</svg>
